<svg width="25" height="24" viewBox="0 0 25 24" fill="none" xmlns="http://www.w3.org/2000/svg">
<path fill-rule="evenodd" clip-rule="evenodd" d="M22.3203 18.6677L13.6618 3.67065C13.4221 3.25564 12.9792 3 12.5 3C12.0208 3 11.5779 3.25564 11.3382 3.67065L2.67974 18.6677C2.44009 19.0828 2.44008 19.5942 2.67972 20.0093C2.91936 20.4244 3.36223 20.6801 3.84153 20.6801H21.1572C21.6368 20.6806 22.08 20.425 22.32 20.0098C22.5599 19.5947 22.56 19.083 22.3203 18.6677ZM12.5 19.2097C11.8068 19.2097 11.2448 18.6477 11.2448 17.9545C11.2448 17.2613 11.8068 16.6994 12.5 16.6994C13.1932 16.6994 13.7552 17.2613 13.7552 17.9545C13.7539 18.6471 13.1925 19.208 12.5 19.2087V19.2097ZM14.0399 8.62845L13.0639 15.4208C12.9862 15.6667 12.758 15.8339 12.5001 15.8339C12.2422 15.8339 12.0141 15.6667 11.9364 15.4208L10.9598 8.62722C10.9553 8.47971 11.0146 8.33742 11.1227 8.23688C11.2307 8.13635 11.3769 8.08736 11.5237 8.10249H13.476C13.6229 8.08727 13.7691 8.13624 13.8772 8.23679C13.9852 8.33734 14.0446 8.47968 14.0399 8.62722V8.62845Z" fill="white"/>
<mask id="mask0_1478_917" style="mask-type:luminance" maskUnits="userSpaceOnUse" x="2" y="3" width="21" height="18">
<path fill-rule="evenodd" clip-rule="evenodd" d="M22.3203 18.6677L13.6618 3.67065C13.4221 3.25564 12.9792 3 12.5 3C12.0208 3 11.5779 3.25564 11.3382 3.67065L2.67974 18.6677C2.44009 19.0828 2.44008 19.5942 2.67972 20.0093C2.91936 20.4244 3.36223 20.6801 3.84153 20.6801H21.1572C21.6368 20.6806 22.08 20.425 22.32 20.0098C22.5599 19.5947 22.56 19.083 22.3203 18.6677ZM12.5 19.2097C11.8068 19.2097 11.2448 18.6477 11.2448 17.9545C11.2448 17.2613 11.8068 16.6994 12.5 16.6994C13.1932 16.6994 13.7552 17.2613 13.7552 17.9545C13.7539 18.6471 13.1925 19.208 12.5 19.2087V19.2097ZM14.0399 8.62845L13.0639 15.4208C12.9862 15.6667 12.758 15.8339 12.5001 15.8339C12.2422 15.8339 12.0141 15.6667 11.9364 15.4208L10.9598 8.62722C10.9553 8.47971 11.0146 8.33742 11.1227 8.23688C11.2307 8.13635 11.3769 8.08736 11.5237 8.10249H13.476C13.6229 8.08727 13.7691 8.13624 13.8772 8.23679C13.9852 8.33734 14.0446 8.47968 14.0399 8.62722V8.62845Z" fill="white"/>
</mask>
<g mask="url(#mask0_1478_917)">
<rect x="0.5" width="24" height="24" fill="white"/>
</g>
</svg>
